<svg width="12" height="11" viewBox="0 0 12 11" fill="none" xmlns="http://www.w3.org/2000/svg">
<path d="M5.25 2.75005C5.25 3.14975 4.91424 3.47373 4.5 3.47373C4.08576 3.47373 3.75 3.14975 3.75 2.75009C3.75 2.35039 4.08581 2.02641 4.5 2.02641C4.91424 2.02641 5.25 2.35043 5.25 2.75014V2.75005ZM8.25 2.75005C8.25 3.14975 7.91424 3.47373 7.5 3.47373C7.08576 3.47373 6.75 3.14975 6.75 2.75009C6.75 2.35039 7.08576 2.02641 7.5 2.02641C7.91424 2.02641 8.25 2.35043 8.25 2.75014V2.75005ZM6.9 5.21053C6.9 5.69017 6.49704 6.07895 6 6.07895C5.50296 6.07895 5.1 5.69017 5.1 5.21053C5.1 4.73097 5.50296 4.34211 6 4.34211C6.49704 4.34211 6.9 4.73097 6.9 5.21053ZM3.9 5.21053C3.9 5.69017 3.49704 6.07895 3 6.07895C2.50296 6.07895 2.1 5.69017 2.1 5.21053C2.1 4.73097 2.50296 4.34211 3 4.34211C3.49704 4.34211 3.9 4.73097 3.9 5.21053ZM9.9 5.21053C9.9 5.69017 9.49704 6.07895 9 6.07895C8.50296 6.07895 8.1 5.69017 8.1 5.21053C8.1 4.73097 8.50296 4.34211 9 4.34211C9.49704 4.34211 9.9 4.73097 9.9 5.21053ZM5.4 7.81579C5.4 8.29544 4.99704 8.68421 4.5 8.68421C4.00296 8.68421 3.6 8.29548 3.6 7.81579C3.6 7.33624 4.00296 6.94737 4.5 6.94737C4.99704 6.94737 5.4 7.33624 5.4 7.81579ZM8.4 7.81579C8.4 8.29544 7.99704 8.68421 7.5 8.68421C7.00296 8.68421 6.6 8.29544 6.6 7.81579C6.6 7.33624 7.00296 6.94737 7.5 6.94737C7.99704 6.94737 8.4 7.33628 8.4 7.81579ZM6 9.8421C8.58192 9.8421 10.8 7.67128 10.8 4.84C10.8 3.75931 10.4722 2.76612 9.92098 1.95485C9.72341 1.66413 9.49747 1.39712 9.24792 1.15794H2.75208C2.50248 1.39716 2.27654 1.66417 2.07902 1.9549C1.52784 2.76612 1.2 3.75931 1.2 4.84C1.2 7.67128 3.41808 9.8421 6 9.8421ZM2.28806 0H9.71198C10.1765 0.376084 10.5856 0.821086 10.9246 1.32C11.6024 2.31783 12 3.53125 12 4.84C12 8.24213 9.31368 11 6 11C2.68627 11 0 8.24213 0 4.84C0 3.53125 0.397536 2.31783 1.07544 1.32C1.41442 0.821179 1.82352 0.376084 2.28806 0Z" fill="#21AA51"/>
</svg>
