<svg width="9" height="12" viewBox="0 0 9 12" fill="none" xmlns="http://www.w3.org/2000/svg">
<path d="M3.01589 1.89472C3.0159 1.80104 3.04417 1.70946 3.09712 1.63157C3.15008 1.55368 3.22534 1.49298 3.31339 1.45713C3.40144 1.42129 3.49832 1.41192 3.59179 1.4302C3.68526 1.44848 3.77111 1.4936 3.8385 1.55985C3.90588 1.62609 3.95177 1.7105 3.97036 1.80238C3.98895 1.89426 3.9794 1.9895 3.94293 2.07605C3.90646 2.1626 3.8447 2.23658 3.76545 2.28863C3.68621 2.34067 3.59305 2.36845 3.49775 2.36845C3.37047 2.36682 3.24887 2.31639 3.15886 2.22791C3.06886 2.13942 3.01755 2.01984 3.01589 1.89472ZM5.4766 2.3685C5.5719 2.3685 5.66506 2.34072 5.74431 2.28867C5.82355 2.23662 5.88531 2.16265 5.92178 2.07609C5.95825 1.98954 5.96779 1.8943 5.9492 1.80241C5.93061 1.71053 5.88471 1.62612 5.81732 1.55988C5.74994 1.49363 5.66408 1.44852 5.5706 1.43024C5.47713 1.41197 5.38025 1.42135 5.2922 1.4572C5.20415 1.49305 5.12889 1.55376 5.07594 1.63166C5.023 1.70956 4.99474 1.80114 4.99474 1.89482C4.9964 2.01994 5.0477 2.13948 5.13771 2.22796C5.22772 2.31644 5.34932 2.36687 5.4766 2.3685ZM4.50002 4.23796C4.6271 4.23796 4.75131 4.20092 4.85697 4.13152C4.96262 4.06212 5.04497 3.96348 5.0936 3.84808C5.14223 3.73267 5.15495 3.60569 5.13016 3.48317C5.10537 3.36066 5.04418 3.24812 4.95433 3.1598C4.86448 3.07147 4.75 3.01132 4.62537 2.98695C4.50074 2.96258 4.37156 2.97509 4.25416 3.02289C4.13676 3.07069 4.03642 3.15164 3.96582 3.2555C3.89522 3.35936 3.85754 3.48147 3.85754 3.60639C3.85754 3.77389 3.92523 3.93453 4.04572 4.05298C4.16621 4.17142 4.32963 4.23796 4.50002 4.23796ZM2.4762 4.23796C2.60328 4.23796 2.72749 4.20092 2.83315 4.13152C2.9388 4.06212 3.02115 3.96348 3.06978 3.84808C3.11841 3.73267 3.13113 3.60569 3.10634 3.48317C3.08155 3.36066 3.02036 3.24812 2.93051 3.1598C2.84066 3.07147 2.72618 3.01132 2.60155 2.98695C2.47692 2.96258 2.34773 2.97509 2.23034 3.02289C2.11294 3.07069 2.0126 3.15164 1.942 3.2555C1.8714 3.35936 1.83372 3.48147 1.83372 3.60639C1.83372 3.77389 1.90141 3.93453 2.0219 4.05298C2.14239 4.17142 2.30581 4.23796 2.4762 4.23796ZM6.52384 4.23796C6.65091 4.23796 6.77513 4.20092 6.88079 4.13152C6.98644 4.06212 7.06879 3.96348 7.11742 3.84808C7.16605 3.73267 7.17877 3.60569 7.15398 3.48317C7.12919 3.36066 7.068 3.24812 6.97815 3.1598C6.88829 3.07147 6.77382 3.01132 6.64919 2.98695C6.52456 2.96258 6.39538 2.97509 6.27798 3.02289C6.16058 3.07069 6.06024 3.15164 5.98964 3.2555C5.91904 3.35936 5.88136 3.48147 5.88136 3.60639C5.88136 3.77389 5.94905 3.93453 6.06954 4.05298C6.19003 4.17142 6.35345 4.23796 6.52384 4.23796ZM3.4849 4.72427C3.35783 4.72427 3.23361 4.76131 3.12796 4.83071C3.0223 4.90011 2.93995 4.99875 2.89133 5.11415C2.8427 5.22956 2.82997 5.35655 2.85476 5.47906C2.87955 5.60157 2.94075 5.71411 3.0306 5.80244C3.12045 5.89076 3.23493 5.95091 3.35956 5.97528C3.48419 5.99965 3.61337 5.98715 3.73077 5.93934C3.84817 5.89154 3.94851 5.81059 4.01911 5.70673C4.0897 5.60287 4.12738 5.48076 4.12738 5.35585C4.12738 5.18834 4.05969 5.0277 3.93921 4.90926C3.81872 4.79081 3.6553 4.72427 3.4849 4.72427ZM5.51515 4.72427C5.38808 4.72427 5.26386 4.76131 5.1582 4.83071C5.05255 4.90011 4.9702 4.99875 4.92157 5.11415C4.87294 5.22956 4.86022 5.35655 4.88501 5.47906C4.9098 5.60157 4.97099 5.71411 5.06084 5.80244C5.1507 5.89076 5.26517 5.95091 5.3898 5.97528C5.51443 5.99965 5.64362 5.98715 5.76101 5.93934C5.87841 5.89154 5.97875 5.81059 6.04935 5.70673C6.11995 5.60287 6.15763 5.48076 6.15763 5.35585C6.15763 5.18834 6.08994 5.0277 5.96945 4.90926C5.84896 4.79081 5.68554 4.72427 5.51515 4.72427ZM3.85754 9.47371C3.85754 9.66108 3.80102 9.84424 3.69512 10C3.58923 10.1558 3.43872 10.2772 3.26262 10.349C3.08652 10.4207 2.89275 10.4394 2.7058 10.4029C2.51886 10.3663 2.34714 10.2761 2.21236 10.1436C2.07758 10.0111 1.9858 9.8423 1.94861 9.65853C1.91143 9.47476 1.93051 9.28427 2.00345 9.11117C2.0764 8.93806 2.19992 8.7901 2.3584 8.686C2.51689 8.58191 2.70321 8.52634 2.89382 8.52634C3.14941 8.52634 3.39454 8.62616 3.57527 8.80382C3.75601 8.98149 3.85754 9.22245 3.85754 9.47371ZM3.21506 9.47371C3.21506 9.41125 3.19622 9.35019 3.16092 9.29826C3.12562 9.24633 3.07545 9.20586 3.01675 9.18196C2.95805 9.15806 2.89346 9.1518 2.83115 9.16399C2.76883 9.17617 2.71159 9.20625 2.66667 9.25041C2.62174 9.29457 2.59114 9.35084 2.57875 9.4121C2.56635 9.47335 2.57272 9.53685 2.59703 9.59455C2.62134 9.65225 2.66252 9.70157 2.71535 9.73627C2.76817 9.77097 2.83028 9.78949 2.89382 9.78949C2.97902 9.78949 3.06073 9.75622 3.12097 9.697C3.18121 9.63778 3.21506 9.55746 3.21506 9.47371ZM7.06995 9.47371C7.06995 9.66108 7.01343 9.84424 6.90754 10C6.80164 10.1558 6.65113 10.2772 6.47503 10.349C6.29893 10.4207 6.10516 10.4394 5.91822 10.4029C5.73127 10.3663 5.55955 10.2761 5.42477 10.1436C5.29 10.0111 5.19821 9.8423 5.16102 9.65853C5.12384 9.47476 5.14292 9.28427 5.21587 9.11117C5.28881 8.93806 5.41233 8.7901 5.57081 8.686C5.7293 8.58191 5.91562 8.52634 6.10623 8.52634C6.36181 8.52634 6.60692 8.62614 6.78765 8.80378C6.96838 8.98143 7.06993 9.22247 7.06995 9.47371ZM6.42747 9.47371C6.42747 9.41125 6.40863 9.35019 6.37333 9.29826C6.33803 9.24633 6.28786 9.20586 6.22916 9.18196C6.17046 9.15806 6.10587 9.1518 6.04356 9.16399C5.98125 9.17617 5.924 9.20625 5.87908 9.25041C5.83415 9.29457 5.80356 9.35084 5.79116 9.4121C5.77877 9.47335 5.78513 9.53685 5.80944 9.59455C5.83376 9.65225 5.87493 9.70157 5.92776 9.73627C5.98059 9.77097 6.04269 9.78949 6.10623 9.78949C6.19143 9.78949 6.27314 9.75622 6.33338 9.697C6.39363 9.63778 6.42747 9.55746 6.42747 9.47371ZM8.9974 9.47371C8.9974 10.1437 8.72664 10.7863 8.24469 11.2601C7.76273 11.7338 7.10906 12 6.42747 12H2.57258C1.95396 12 1.35609 11.7806 0.888754 11.3822C0.421414 10.9838 0.115962 10.433 0.0284756 9.83098C-0.0590106 9.22897 0.0773408 8.61615 0.412497 8.10501C0.747653 7.59388 1.25912 7.21874 1.853 7.04846C0.901207 6.36833 0.258485 5.3486 0.0627052 4.20801C-0.133075 3.06743 0.133681 1.89684 0.80575 0.94736C1.0621 0.590223 1.36935 0.271172 1.71807 0H7.28197C7.6307 0.271172 7.93795 0.590223 8.1943 0.94736C8.86633 1.89683 9.13307 3.0674 8.93729 4.20796C8.74151 5.34852 8.09881 6.36823 7.14705 7.04836C7.68087 7.20141 8.14978 7.52054 8.48341 7.95783C8.81705 8.39512 8.9974 8.92709 8.9974 9.47371ZM4.50002 6.94741C5.43721 6.94741 6.33601 6.58144 6.99869 5.93C7.66138 5.27856 8.03368 4.39503 8.03368 3.47376C8.03495 2.76305 7.81033 2.06971 7.3912 1.49061C7.2542 1.29238 7.09469 1.11012 6.91576 0.94736H2.07787C1.89875 1.11172 1.73728 1.29372 1.596 1.49051C1.22736 2.01165 1.01102 2.62212 0.970493 3.25562C0.929963 3.88912 1.06679 4.52142 1.36611 5.08386C1.66542 5.64629 2.11579 6.11735 2.6683 6.44588C3.2208 6.7744 3.85431 6.94792 4.50002 6.94741ZM8.03368 9.47371C8.03368 9.05495 7.86445 8.65334 7.56323 8.35723C7.26201 8.06112 6.85346 7.89477 6.42747 7.89477H2.57258C2.14658 7.89477 1.73804 8.06112 1.43682 8.35723C1.1356 8.65334 0.96637 9.05495 0.96637 9.47371C0.96637 9.89246 1.1356 10.2941 1.43682 10.5902C1.73804 10.8863 2.14658 11.0526 2.57258 11.0526H6.42747C6.6384 11.0526 6.84727 11.0118 7.04214 10.9325C7.23701 10.8531 7.41408 10.7368 7.56323 10.5902C7.71238 10.4436 7.83069 10.2695 7.91141 10.0779C7.99213 9.88637 8.03368 9.68105 8.03368 9.47371Z" fill="#0073E6"/>
</svg>
