<svg width="12" height="12" viewBox="0 0 12 12" fill="none" xmlns="http://www.w3.org/2000/svg">
<path d="M3.6 5.1C4.098 5.1 4.5 5.502 4.5 6C4.5 6.498 4.098 6.9 3.6 6.9C3.102 6.9 2.7 6.498 2.7 6C2.7 5.502 3.102 5.1 3.6 5.1ZM3.6 4.2C2.604 4.2 1.8 5.004 1.8 6C1.8 6.996 2.604 7.8 3.6 7.8C4.596 7.8 5.4 6.996 5.4 6C5.4 5.004 4.596 4.2 3.6 4.2ZM8.4 5.1C8.898 5.1 9.3 5.502 9.3 6C9.3 6.498 8.898 6.9 8.4 6.9C7.902 6.9 7.5 6.498 7.5 6C7.5 5.502 7.902 5.1 8.4 5.1ZM8.4 4.2C7.404 4.2 6.6 5.004 6.6 6C6.6 6.996 7.404 7.8 8.4 7.8C9.396 7.8 10.2 6.996 10.2 6C10.2 5.004 9.396 4.2 8.4 4.2ZM7.272 3.846L6.426 3L7.272 2.154L6.846 1.728L6 2.574L5.154 1.728L4.728 2.154L5.574 3L4.728 3.846L5.154 4.272L6 3.426L6.846 4.272L7.272 3.846ZM7.272 9.846L6.426 9L7.272 8.154L6.846 7.728L6 8.574L5.154 7.728L4.728 8.154L5.574 9L4.728 9.846L5.154 10.272L6 9.426L6.846 10.272L7.272 9.846ZM10.644 2.202L11.1 1.758L10.242 0.9L9.798 1.356C8.76 0.51 7.44 0 6 0C4.56 0 3.24 0.51 2.202 1.356L1.758 0.9L0.9 1.758L1.356 2.202C0.51 3.24 0 4.56 0 6C0 9.3 2.7 12 6 12C9.3 12 12 9.3 12 6C12 4.56 11.49 3.24 10.644 2.202ZM6 10.8C3.354 10.8 1.2 8.646 1.2 6C1.2 3.354 3.354 1.2 6 1.2C8.646 1.2 10.8 3.354 10.8 6C10.8 8.646 8.646 10.8 6 10.8Z" fill="#21AA51"/>
</svg>
