<svg width="146" height="18" viewBox="0 0 146 18" fill="none" xmlns="http://www.w3.org/2000/svg"><g clip-path="url(#clip0_2963_5350)"><path d="M68.03 2.875V.056H55.858v17.586h3.41v-7.025h6.582v-2.82h-6.582V2.876h8.762Zm5.06 1.826c-3.362 0-5.099 1.802-5.116 1.82l-.025.028v2.638h.272c.013-.018 1.662-1.785 4.49-1.785 1.942 0 2.973.862 2.984 2.495-.375-.008-1.694-.036-3.703-.036-3.025 0-5.06 1.727-5.06 4.3 0 2.225 1.915 3.84 4.552 3.84 2.854 0 3.956-1.686 4.224-2.189l.122 1.83h3v-7.84c0-3.24-2.09-5.1-5.736-5.1h-.004Zm-.973 10.72c-1.225 0-1.926-.572-1.926-1.569s.89-1.558 2.307-1.687c1.83-.165 2.835-.175 3.171-.165-.143.583-.937 3.42-3.552 3.42Zm28.262-1.075s-1.089.954-2.412.954c-1.188 0-1.925-.785-1.925-2.045V7.757h4.191v-2.7h-4.191V.438l-3.133 1.267v11.67c0 2.81 1.737 4.625 4.424 4.625 2.051 0 3.201-1.056 3.25-1.102l.032-.03v-2.524h-.234l-.002.002Zm9.166-9.645c-2.791 0-3.763 1.743-4.05 2.208l-.082-1.85h-2.999v12.585h3.132v-6.768c0-1.914 1.216-3.472 3.257-3.472 1.788 0 3.049.96 3.049 2.64v7.602h3.132V9.925c0-3.221-2.163-5.22-5.439-5.22v-.004Zm20.705 6.563c0-3.987-2.584-6.563-6.582-6.563-3.999 0-6.964 2.922-6.964 6.65 0 3.727 3.004 6.65 7.142 6.65 3.499 0 5.471-1.434 5.493-1.449l.045-.03v-2.77h-.253c-.017.015-1.863 1.548-4.955 1.548-2.521 0-4.136-1.112-4.449-3.057h10.525v-.98l-.002.001Zm-3.03-1.361h-7.33c.199-.714 1.439-2.501 3.904-2.501 2.104 0 3.148 1.32 3.426 2.5ZM142.868.056v6.845a4.62 4.62 0 0 0-1.002-1.046c-.679-.526-1.854-1.154-3.591-1.154-3.692 0-6.582 2.922-6.582 6.65 0 3.727 2.892 6.65 6.582 6.65 1.737 0 2.912-.628 3.591-1.155a4.618 4.618 0 0 0 1.01-1.06l.124 1.856h3V.056h-3.132ZM138.91 15.3c-2.294 0-3.958-1.661-3.958-3.95 0-2.288 1.664-3.948 3.958-3.948 2.294 0 3.958 1.66 3.958 3.949 0 2.288-1.664 3.949-3.958 3.949ZM86.368 9.93c-1.372-.333-2.457-.598-2.457-1.32 0-.802.647-1.21 1.925-1.21 2.048 0 3.911 1.067 4.153 1.232h.279V5.948l-.045-.03c-.836-.558-2.32-1.219-4.642-1.219-2.903 0-4.931 1.558-4.931 3.792 0 2.785 2.633 3.408 4.747 3.911 1.473.35 2.744.652 2.744 1.568 0 .857-.864 1.33-2.433 1.33-2.472 0-4.498-1.297-4.516-1.312h-.29v2.757l.05.03c.766.457 2.384 1.223 4.63 1.223 3.672 0 5.694-1.39 5.694-3.911 0-2.962-2.723-3.623-4.91-4.158l.002.002Z" fill="currentColor"></path><path d="M46.971.053 23.947 9.409.922.053C.487-.124 0 .176 0 .62v4.438c0 2.312 1.486 4.397 3.763 5.28l17.73 6.882a6.8 6.8 0 0 0 4.902 0l17.731-6.882c2.28-.885 3.763-2.968 3.763-5.28V.62c0-.444-.487-.744-.922-.567h.005Z" fill="#FFD913"></path></g><defs><clipPath id="clip0_2963_5350"><path fill="#fff" d="M0 0h146v18H0z"></path></clipPath></defs></svg>